# xmcd
#
# Track frame offsets:
#	150
#	5929
#	15957
#	27662
#	39626
#	46914
#	58081
#	68679
#	78311
#	92501
#	102912
#	111530
#	120288
#	131809
#	139225
#	147067
#	155580
#	163513
#	172571
#	181407
#	188876
#	200034
#
# Disc length: 2768 seconds
#
# Revision: 1
# Processed by: cddbd v1.5.1PL0 Copyright (c) Steve Scherf et al.
# Submitted via: audiograbber 1.81.03
#
DISCID=2c0ace16
DTITLE=Jim Reeves - He´ll Have To Go
DYEAR=1900
DGENRE=Country
TTITLE0=Have I Told You Lately That I Love You
TTITLE1=He´ll Have To Go
TTITLE2=Mexican Joe
TTITLE3=Four Walls
TTITLE4=Blue Boy 
TTITLE5=Am I Losing Yoy?
TTITLE6=I Missed You
TTITLE7=Home
TTITLE8=The Highway To Nowhere
TTITLE9=An Evening Prayer
TTITLE10=According To My Heart
TTITLE11=Old Time Religion
TTITLE12=I Love You More
TTITLE13=The Oklahoma Hills
TTITLE14=Till The End Of The World
TTITLE15=If You Were Only Mine
TTITLE16=Everywhere You Go
TTITLE17=The Wind UpTrack 18
TTITLE18=I´d Like You
TTITLE19=In A Mansion Stands My Love
TTITLE20=Just Call Me Lonesome
TTITLE21=Bimbo
EXTD=
EXTT0=
EXTT1=
EXTT2=
EXTT3=
EXTT4=
EXTT5=
EXTT6=
EXTT7=
EXTT8=
EXTT9=
EXTT10=
EXTT11=
EXTT12=
EXTT13=
EXTT14=
EXTT15=
EXTT16=
EXTT17=
EXTT18=
EXTT19=
EXTT20=
EXTT21=
PLAYORDER=
